<?xml version="1.0" encoding="utf-8"?><svg xmlns="http://www.w3.org/2000/svg" xmlns:xlink="http://www.w3.org/1999/xlink"><symbol viewBox="0 0 24 24" id="burger" xmlns="http://www.w3.org/2000/svg"><path d="M0 0h24v24H0z" fill="none"/><path d="M3 18h18v-2H3v2zm0-5h18v-2H3v2zm0-7v2h18V6H3z"/></symbol><symbol viewBox="0 0 24 24" id="charts" xmlns="http://www.w3.org/2000/svg"><path fill="none" d="M0 0h24v24H0V0z"/><path d="M5 9.2h3V19H5V9.2zM10.6 5h2.8v14h-2.8V5zm5.6 8H19v6h-2.8v-6z"/></symbol><symbol viewBox="0 0 24 24" id="compo" xmlns="http://www.w3.org/2000/svg"><path fill="none" d="M0 0h24v24H0V0z"/><path d="M10.5 4.5c.28 0 .5.22.5.5v2h6v6h2c.28 0 .5.22.5.5s-.22.5-.5.5h-2v6h-2.12c-.68-1.75-2.39-3-4.38-3s-3.7 1.25-4.38 3H4v-2.12c1.75-.68 3-2.39 3-4.38 0-1.99-1.24-3.7-2.99-4.38L4 7h6V5c0-.28.22-.5.5-.5m0-2A2.5 2.5 0 008 5H4c-1.1 0-1.99.9-1.99 2v3.8h.29c1.49 0 2.7 1.21 2.7 2.7s-1.21 2.7-2.7 2.7H2V20c0 1.1.9 2 2 2h3.8v-.3c0-1.49 1.21-2.7 2.7-2.7s2.7 1.21 2.7 2.7v.3H17c1.1 0 2-.9 2-2v-4a2.5 2.5 0 000-5V7c0-1.1-.9-2-2-2h-4a2.5 2.5 0 00-2.5-2.5z"/></symbol><symbol viewBox="0 0 24 24" id="conversion" xmlns="http://www.w3.org/2000/svg"><path fill="none" d="M0 0h24v24H0V0z"/><path d="M11.99 2C6.47 2 2 6.48 2 12s4.47 10 9.99 10C17.52 22 22 17.52 22 12S17.52 2 11.99 2zM12 20c-4.42 0-8-3.58-8-8s3.58-8 8-8 8 3.58 8 8-3.58 8-8 8zm.5-13H11v6l5.25 3.15.75-1.23-4.5-2.67z"/></symbol><symbol viewBox="0 0 24 24" id="dots" xmlns="http://www.w3.org/2000/svg"><path d="M0 0h24v24H0z" fill="none"/><path d="M6 10c-1.1 0-2 .9-2 2s.9 2 2 2 2-.9 2-2-.9-2-2-2zm12 0c-1.1 0-2 .9-2 2s.9 2 2 2 2-.9 2-2-.9-2-2-2zm-6 0c-1.1 0-2 .9-2 2s.9 2 2 2 2-.9 2-2-.9-2-2-2z"/></symbol><symbol viewBox="0 0 24 24" id="extra" xmlns="http://www.w3.org/2000/svg"><path fill="none" d="M0 0h24v24H0V0z"/><path d="M10.5 4.5c.28 0 .5.22.5.5v2h6v6h2c.28 0 .5.22.5.5s-.22.5-.5.5h-2v6h-2.12c-.68-1.75-2.39-3-4.38-3s-3.7 1.25-4.38 3H4v-2.12c1.75-.68 3-2.39 3-4.38 0-1.99-1.24-3.7-2.99-4.38L4 7h6V5c0-.28.22-.5.5-.5m0-2A2.5 2.5 0 008 5H4c-1.1 0-1.99.9-1.99 2v3.8h.29c1.49 0 2.7 1.21 2.7 2.7s-1.21 2.7-2.7 2.7H2V20c0 1.1.9 2 2 2h3.8v-.3c0-1.49 1.21-2.7 2.7-2.7s2.7 1.21 2.7 2.7v.3H17c1.1 0 2-.9 2-2v-4a2.5 2.5 0 000-5V7c0-1.1-.9-2-2-2h-4a2.5 2.5 0 00-2.5-2.5z"/></symbol><symbol viewBox="0 0 24 24" id="form" xmlns="http://www.w3.org/2000/svg"><path fill="none" d="M0 0h24v24H0z"/><path d="M12.72 11l-2 2h-.77l-.25-.69c-.18-.48-.42-.92-.72-1.31h3.74m2.69-6H11v2h3.59l2 2H5c-2.8 0-5 2.2-5 5s2.2 5 5 5c2.46 0 4.45-1.69 4.9-4h1.65l2.77-2.77c-.21.54-.32 1.14-.32 1.77 0 2.8 2.2 5 5 5s5-2.2 5-5c0-2.65-1.97-4.77-4.56-4.97L15.41 5zM19 17c-1.66 0-3-1.34-3-3s1.34-3 3-3 3 1.34 3 3-1.34 3-3 3zM5 17c-1.63 0-3-1.37-3-3s1.37-3 3-3c1.28 0 2.4.85 2.82 2H5v2h2.82C7.4 16.15 6.28 17 5 17z"/></symbol><symbol viewBox="0 0 24 24" id="home" xmlns="http://www.w3.org/2000/svg"><path fill="none" d="M0 0h24v24H0V0z"/><path d="M12 5.69l5 4.5V18h-2v-6H9v6H7v-7.81l5-4.5M12 3L2 12h3v8h6v-6h2v6h6v-8h3L12 3z"/></symbol><symbol viewBox="0 0 24 24" id="icons" xmlns="http://www.w3.org/2000/svg"><path fill="none" d="M0 0h24v24H0z"/><path d="M12 2.02c-5.51 0-9.98 4.47-9.98 9.98s4.47 9.98 9.98 9.98 9.98-4.47 9.98-9.98S17.51 2.02 12 2.02zm0 17.96c-4.4 0-7.98-3.58-7.98-7.98S7.6 4.02 12 4.02 19.98 7.6 19.98 12 16.4 19.98 12 19.98zM12.75 5l-4.5 8.5h3.14V19l4.36-8.5h-3z"/></symbol><symbol viewBox="0 0 24 24" id="logo" xmlns="http://www.w3.org/2000/svg"><path fill="none" d="M0 0h24v24H0V0z"/><path d="M12 2C6.48 2 2 6.48 2 12s4.48 10 10 10 10-4.48 10-10S17.52 2 12 2zm3.61 6.34c1.07 0 1.93.86 1.93 1.93s-.86 1.93-1.93 1.93-1.93-.86-1.93-1.93c-.01-1.07.86-1.93 1.93-1.93zm-6-1.58c1.3 0 2.36 1.06 2.36 2.36s-1.06 2.36-2.36 2.36-2.36-1.06-2.36-2.36c0-1.31 1.05-2.36 2.36-2.36zm0 9.13v3.75c-2.4-.75-4.3-2.6-5.14-4.96 1.05-1.12 3.67-1.69 5.14-1.69.53 0 1.2.08 1.9.22-1.64.87-1.9 2.02-1.9 2.68zM12 20c-.27 0-.53-.01-.79-.04v-4.07c0-1.42 2.94-2.13 4.4-2.13 1.07 0 2.92.39 3.84 1.15C18.28 17.88 15.39 20 12 20z"/></symbol><symbol viewBox="0 0 24 24" id="mails" xmlns="http://www.w3.org/2000/svg"><path fill="none" d="M0 0h24v24H0V0z"/><path d="M22 6c0-1.1-.9-2-2-2H4c-1.1 0-2 .9-2 2v12c0 1.1.9 2 2 2h16c1.1 0 2-.9 2-2V6zm-2 0l-8 5-8-5h16zm0 12H4V8l8 5 8-5v10z"/></symbol><symbol viewBox="0 0 24 24" id="maps" xmlns="http://www.w3.org/2000/svg"><path fill="none" d="M0 0h24v24H0V0z"/><path d="M12 7C6.48 7 2 9.24 2 12c0 2.24 2.94 4.13 7 4.77V20l4-4-4-4v2.73c-3.15-.56-5-1.9-5-2.73 0-1.06 3.04-3 8-3s8 1.94 8 3c0 .73-1.46 1.89-4 2.53v2.05c3.53-.77 6-2.53 6-4.58 0-2.76-4.48-5-10-5z"/></symbol><symbol viewBox="0 0 24 24" id="multilevel" xmlns="http://www.w3.org/2000/svg"><path fill="none" d="M0 0h24v24H0V0z"/><path d="M11.99 18.54l-7.37-5.73L3 14.07l9 7 9-7-1.63-1.27zM12 16l7.36-5.73L21 9l-9-7-9 7 1.63 1.27L12 16zm0-11.47L17.74 9 12 13.47 6.26 9 12 4.53z"/></symbol><symbol viewBox="0 0 24 24" id="notification" xmlns="http://www.w3.org/2000/svg"><path d="M12 22c1.1 0 2-.9 2-2h-4a2 2 0 002 2zm6-6v-5c0-3.07-1.64-5.64-4.5-6.32V4c0-.83-.67-1.5-1.5-1.5s-1.5.67-1.5 1.5v.68C7.63 5.36 6 7.92 6 11v5l-2 2v1h16v-1l-2-2z"/></symbol><symbol viewBox="0 0 24 24" id="pages" xmlns="http://www.w3.org/2000/svg"><path fill="none" d="M0 0h24v24H0V0z"/><path d="M19 3H5c-1.1 0-2 .9-2 2v14c0 1.1.9 2 2 2h14c1.1 0 2-.9 2-2V5c0-1.1-.9-2-2-2zm-6 2h6v6h-3l1-4-4 1V5zM5 5h6v3L7 7l1 4H5V5zm6 14H5v-6h3l-1 4 4-1v3zm8 0h-6v-3l4 1-1-4h3v6zm-4.37-4.37L12 13.72l-2.63.91.91-2.63-.91-2.63 2.63.91 2.63-.91-.91 2.63.91 2.63z"/></symbol><symbol viewBox="0 0 24 24" id="revenue" xmlns="http://www.w3.org/2000/svg"><path fill="none" d="M0 0h24v24H0z"/><path d="M18 24h-6.55c-1.08 0-2.14-.45-2.89-1.23l-7.3-7.61 2.07-1.83c.62-.55 1.53-.66 2.26-.27L8 14.34V4.79a2.5 2.5 0 013.01-2.45C11.1 1.04 12.18.01 13.5.01c.86 0 1.61.43 2.06 1.09.29-.12.61-.18.94-.18a2.5 2.5 0 012.5 2.5v.28a2.5 2.5 0 013 2.45V20c0 2.21-1.79 4-4 4zM4.14 15.28l5.86 6.1c.38.39.9.62 1.44.62H18c1.1 0 2-.9 2-2V6.15c0-.28-.22-.5-.5-.5s-.5.22-.5.5V12h-2V3.42c0-.28-.22-.5-.5-.5s-.5.22-.5.5V12h-2V2.51c0-.28-.22-.5-.5-.5s-.5.22-.5.5V12h-2V4.79c0-.28-.22-.5-.5-.5s-.5.23-.5.5v12.87l-5.35-2.83-.51.45z"/></symbol><symbol viewBox="0 0 24 24" id="sales" xmlns="http://www.w3.org/2000/svg"><path fill="none" d="M0 0h24v24H0V0z"/><path d="M15 18.5A6.48 6.48 0 019.24 15H15v-2H8.58c-.05-.33-.08-.66-.08-1s.03-.67.08-1H15V9H9.24A6.491 6.491 0 0115 5.5c1.61 0 3.09.59 4.23 1.57L21 5.3A8.955 8.955 0 0015 3c-3.92 0-7.24 2.51-8.48 6H3v2h3.06a8.262 8.262 0 000 2H3v2h3.52c1.24 3.49 4.56 6 8.48 6 2.31 0 4.41-.87 6-2.3l-1.78-1.77c-1.13.98-2.6 1.57-4.22 1.57z"/></symbol><symbol viewBox="0 0 24 24" id="tables" xmlns="http://www.w3.org/2000/svg"><path fill="none" d="M0 0h24v24H0V0z"/><path d="M19 4h-4L7.11 16.63 4.5 12 9 4H5L.5 12 5 20h4l7.89-12.63L19.5 12 15 20h4l4.5-8L19 4z"/></symbol><symbol viewBox="0 0 24 24" id="typo" xmlns="http://www.w3.org/2000/svg"><path fill="none" d="M0 0h24v24H0z"/><path d="M6.05 8.05a7.007 7.007 0 000 9.9C7.42 19.32 9.21 20 11 20s3.58-.68 4.95-2.05C19.43 14.47 20 4 20 4S9.53 4.57 6.05 8.05zm8.49 8.49c-.95.94-2.2 1.46-3.54 1.46-.89 0-1.73-.25-2.48-.68.92-2.88 2.62-5.41 4.88-7.32-2.63 1.36-4.84 3.46-6.37 6-1.48-1.96-1.35-4.75.44-6.54C9.21 7.72 14.04 6.65 17.8 6.2c-.45 3.76-1.52 8.59-3.26 10.34z"/></symbol><symbol viewBox="0 0 24 24" id="ui" xmlns="http://www.w3.org/2000/svg"><path fill="none" d="M24 0H0v24h24V0z"/><path d="M17.66 7.93L12 2.27 6.34 7.93c-3.12 3.12-3.12 8.19 0 11.31C7.9 20.8 9.95 21.58 12 21.58s4.1-.78 5.66-2.34c3.12-3.12 3.12-8.19 0-11.31zM12 19.59c-1.6 0-3.11-.62-4.24-1.76C6.62 16.69 6 15.19 6 13.59s.62-3.11 1.76-4.24L12 5.1v14.49z"/></symbol><symbol viewBox="0 0 24 24" id="visit" xmlns="http://www.w3.org/2000/svg"><path fill="none" d="M0 0h24v24H0V0z"/><path d="M12 6a9.77 9.77 0 018.82 5.5C19.17 14.87 15.79 17 12 17s-7.17-2.13-8.82-5.5A9.77 9.77 0 0112 6m0-2C7 4 2.73 7.11 1 11.5 2.73 15.89 7 19 12 19s9.27-3.11 11-7.5C21.27 7.11 17 4 12 4zm0 5a2.5 2.5 0 010 5 2.5 2.5 0 010-5m0-2c-2.48 0-4.5 2.02-4.5 4.5S9.52 16 12 16s4.5-2.02 4.5-4.5S14.48 7 12 7z"/></symbol></svg>